<mxfile host="Electron" modified="2024-06-01T13:20:55.092Z" agent="Mozilla/5.0 (Windows NT 10.0; Win64; x64) AppleWebKit/537.36 (KHTML, like Gecko) draw.io/24.4.13 Chrome/124.0.6367.207 Electron/30.0.6 Safari/537.36" etag="90hfDNv3ChBsIilVJmV1" version="24.4.13" type="device">
  <diagram id="C5RBs43oDa-KdzZeNtuy" name="Page-1">
    <mxGraphModel dx="1928" dy="997" grid="1" gridSize="10" guides="1" tooltips="1" connect="1" arrows="1" fold="1" page="1" pageScale="1" pageWidth="827" pageHeight="1169" background="none" math="0" shadow="0">
      <root>
        <mxCell id="WIyWlLk6GJQsqaUBKTNV-0" />
        <mxCell id="WIyWlLk6GJQsqaUBKTNV-1" parent="WIyWlLk6GJQsqaUBKTNV-0" />
        <mxCell id="qLFj0GDw7hjwtjSQd4U2-1" value="&lt;font style=&quot;font-size: 26px;&quot;&gt;Robot Arm elektrisch shema&lt;/font&gt;" style="text;html=1;align=center;verticalAlign=middle;resizable=0;points=[];autosize=1;strokeColor=none;fillColor=none;" vertex="1" parent="WIyWlLk6GJQsqaUBKTNV-1">
          <mxGeometry x="238" y="80" width="350" height="40" as="geometry" />
        </mxCell>
        <mxCell id="qLFj0GDw7hjwtjSQd4U2-7" style="edgeStyle=orthogonalEdgeStyle;rounded=0;orthogonalLoop=1;jettySize=auto;html=1;entryX=0;entryY=0.5;entryDx=0;entryDy=0;fillColor=#f0a30a;strokeColor=#BD7000;" edge="1" parent="WIyWlLk6GJQsqaUBKTNV-1" source="qLFj0GDw7hjwtjSQd4U2-3" target="qLFj0GDw7hjwtjSQd4U2-6">
          <mxGeometry relative="1" as="geometry" />
        </mxCell>
        <mxCell id="qLFj0GDw7hjwtjSQd4U2-3" value="" style="ellipse;whiteSpace=wrap;html=1;aspect=fixed;fillColor=#f0a30a;fontColor=#000000;strokeColor=#BD7000;" vertex="1" parent="WIyWlLk6GJQsqaUBKTNV-1">
          <mxGeometry x="55" y="210" width="40" height="40" as="geometry" />
        </mxCell>
        <mxCell id="qLFj0GDw7hjwtjSQd4U2-5" value="stopcontact 230v" style="text;html=1;align=center;verticalAlign=middle;resizable=0;points=[];autosize=1;strokeColor=none;fillColor=none;" vertex="1" parent="WIyWlLk6GJQsqaUBKTNV-1">
          <mxGeometry x="20" y="180" width="110" height="30" as="geometry" />
        </mxCell>
        <mxCell id="qLFj0GDw7hjwtjSQd4U2-10" style="edgeStyle=orthogonalEdgeStyle;rounded=0;orthogonalLoop=1;jettySize=auto;html=1;fillColor=#f0a30a;strokeColor=#BD7000;" edge="1" parent="WIyWlLk6GJQsqaUBKTNV-1" source="qLFj0GDw7hjwtjSQd4U2-6" target="qLFj0GDw7hjwtjSQd4U2-9">
          <mxGeometry relative="1" as="geometry" />
        </mxCell>
        <mxCell id="qLFj0GDw7hjwtjSQd4U2-58" style="edgeStyle=orthogonalEdgeStyle;rounded=0;orthogonalLoop=1;jettySize=auto;html=1;entryX=1;entryY=0.5;entryDx=0;entryDy=0;fillColor=#f0a30a;strokeColor=#BD7000;" edge="1" parent="WIyWlLk6GJQsqaUBKTNV-1" source="qLFj0GDw7hjwtjSQd4U2-6" target="qLFj0GDw7hjwtjSQd4U2-57">
          <mxGeometry relative="1" as="geometry">
            <Array as="points">
              <mxPoint x="210" y="290" />
              <mxPoint x="63" y="290" />
            </Array>
          </mxGeometry>
        </mxCell>
        <mxCell id="qLFj0GDw7hjwtjSQd4U2-6" value="24V voeding" style="rounded=0;whiteSpace=wrap;html=1;rotation=0;fillColor=#f0a30a;fontColor=#000000;strokeColor=#BD7000;" vertex="1" parent="WIyWlLk6GJQsqaUBKTNV-1">
          <mxGeometry x="150" y="200" width="120" height="60" as="geometry" />
        </mxCell>
        <mxCell id="qLFj0GDw7hjwtjSQd4U2-11" style="edgeStyle=orthogonalEdgeStyle;rounded=0;orthogonalLoop=1;jettySize=auto;html=1;entryX=0.5;entryY=1;entryDx=0;entryDy=0;fillColor=#1ba1e2;strokeColor=#006EAF;exitX=1;exitY=0;exitDx=0;exitDy=0;" edge="1" parent="WIyWlLk6GJQsqaUBKTNV-1" source="qLFj0GDw7hjwtjSQd4U2-8" target="qLFj0GDw7hjwtjSQd4U2-9">
          <mxGeometry relative="1" as="geometry" />
        </mxCell>
        <mxCell id="qLFj0GDw7hjwtjSQd4U2-45" style="edgeStyle=orthogonalEdgeStyle;rounded=0;orthogonalLoop=1;jettySize=auto;html=1;exitX=1;exitY=0.25;exitDx=0;exitDy=0;entryX=0;entryY=0.25;entryDx=0;entryDy=0;fillColor=#1ba1e2;strokeColor=#006EAF;" edge="1" parent="WIyWlLk6GJQsqaUBKTNV-1" source="qLFj0GDw7hjwtjSQd4U2-8" target="qLFj0GDw7hjwtjSQd4U2-12">
          <mxGeometry relative="1" as="geometry" />
        </mxCell>
        <mxCell id="qLFj0GDw7hjwtjSQd4U2-46" style="edgeStyle=orthogonalEdgeStyle;rounded=0;orthogonalLoop=1;jettySize=auto;html=1;entryX=0;entryY=0.25;entryDx=0;entryDy=0;fillColor=#1ba1e2;strokeColor=#006EAF;exitX=1.004;exitY=0.344;exitDx=0;exitDy=0;exitPerimeter=0;" edge="1" parent="WIyWlLk6GJQsqaUBKTNV-1" source="qLFj0GDw7hjwtjSQd4U2-8" target="qLFj0GDw7hjwtjSQd4U2-13">
          <mxGeometry relative="1" as="geometry">
            <mxPoint x="500" y="449.66666666666674" as="targetPoint" />
            <mxPoint x="240" y="430" as="sourcePoint" />
            <Array as="points">
              <mxPoint x="230" y="430" />
              <mxPoint x="500" y="430" />
              <mxPoint x="500" y="590" />
            </Array>
          </mxGeometry>
        </mxCell>
        <mxCell id="qLFj0GDw7hjwtjSQd4U2-47" style="edgeStyle=orthogonalEdgeStyle;rounded=0;orthogonalLoop=1;jettySize=auto;html=1;exitX=0.983;exitY=0.435;exitDx=0;exitDy=0;entryX=0;entryY=0.25;entryDx=0;entryDy=0;fillColor=#1ba1e2;strokeColor=#006EAF;exitPerimeter=0;" edge="1" parent="WIyWlLk6GJQsqaUBKTNV-1" source="qLFj0GDw7hjwtjSQd4U2-8" target="qLFj0GDw7hjwtjSQd4U2-14">
          <mxGeometry relative="1" as="geometry">
            <Array as="points">
              <mxPoint x="230" y="442" />
              <mxPoint x="230" y="440" />
              <mxPoint x="480" y="440" />
              <mxPoint x="480" y="760" />
            </Array>
          </mxGeometry>
        </mxCell>
        <mxCell id="qLFj0GDw7hjwtjSQd4U2-48" style="edgeStyle=orthogonalEdgeStyle;rounded=0;orthogonalLoop=1;jettySize=auto;html=1;exitX=1;exitY=0.5;exitDx=0;exitDy=0;entryX=0;entryY=0.25;entryDx=0;entryDy=0;fillColor=#1ba1e2;strokeColor=#006EAF;" edge="1" parent="WIyWlLk6GJQsqaUBKTNV-1" source="qLFj0GDw7hjwtjSQd4U2-8" target="qLFj0GDw7hjwtjSQd4U2-15">
          <mxGeometry relative="1" as="geometry">
            <Array as="points">
              <mxPoint x="460" y="450" />
              <mxPoint x="460" y="930" />
            </Array>
          </mxGeometry>
        </mxCell>
        <mxCell id="qLFj0GDw7hjwtjSQd4U2-8" value="Arduino&lt;div&gt;Mega&lt;/div&gt;" style="rounded=0;whiteSpace=wrap;html=1;fillColor=#0050ef;fontColor=#ffffff;strokeColor=#001DBC;" vertex="1" parent="WIyWlLk6GJQsqaUBKTNV-1">
          <mxGeometry x="150" y="390" width="80" height="120" as="geometry" />
        </mxCell>
        <mxCell id="qLFj0GDw7hjwtjSQd4U2-9" value="Relay" style="whiteSpace=wrap;html=1;aspect=fixed;fillColor=#f0a30a;fontColor=#000000;strokeColor=#BD7000;" vertex="1" parent="WIyWlLk6GJQsqaUBKTNV-1">
          <mxGeometry x="379" y="190" width="80" height="80" as="geometry" />
        </mxCell>
        <mxCell id="qLFj0GDw7hjwtjSQd4U2-23" style="edgeStyle=orthogonalEdgeStyle;rounded=0;orthogonalLoop=1;jettySize=auto;html=1;fillColor=#60a917;strokeColor=#2D7600;" edge="1" parent="WIyWlLk6GJQsqaUBKTNV-1" source="qLFj0GDw7hjwtjSQd4U2-12">
          <mxGeometry relative="1" as="geometry">
            <mxPoint x="800" y="460" as="targetPoint" />
          </mxGeometry>
        </mxCell>
        <mxCell id="qLFj0GDw7hjwtjSQd4U2-12" value="Stepper driver" style="rounded=0;whiteSpace=wrap;html=1;fillColor=#60a917;fontColor=#ffffff;strokeColor=#2D7600;" vertex="1" parent="WIyWlLk6GJQsqaUBKTNV-1">
          <mxGeometry x="590" y="380" width="110" height="160" as="geometry" />
        </mxCell>
        <mxCell id="qLFj0GDw7hjwtjSQd4U2-21" style="edgeStyle=orthogonalEdgeStyle;rounded=0;orthogonalLoop=1;jettySize=auto;html=1;fillColor=#60a917;strokeColor=#2D7600;" edge="1" parent="WIyWlLk6GJQsqaUBKTNV-1" source="qLFj0GDw7hjwtjSQd4U2-13">
          <mxGeometry relative="1" as="geometry">
            <mxPoint x="800" y="630" as="targetPoint" />
          </mxGeometry>
        </mxCell>
        <mxCell id="qLFj0GDw7hjwtjSQd4U2-13" value="Stepper driver" style="rounded=0;whiteSpace=wrap;html=1;fillColor=#60a917;fontColor=#ffffff;strokeColor=#2D7600;" vertex="1" parent="WIyWlLk6GJQsqaUBKTNV-1">
          <mxGeometry x="590" y="550" width="110" height="160" as="geometry" />
        </mxCell>
        <mxCell id="qLFj0GDw7hjwtjSQd4U2-20" style="edgeStyle=orthogonalEdgeStyle;rounded=0;orthogonalLoop=1;jettySize=auto;html=1;fillColor=#60a917;strokeColor=#2D7600;" edge="1" parent="WIyWlLk6GJQsqaUBKTNV-1" source="qLFj0GDw7hjwtjSQd4U2-14">
          <mxGeometry relative="1" as="geometry">
            <mxPoint x="800" y="800.0000000000002" as="targetPoint" />
          </mxGeometry>
        </mxCell>
        <mxCell id="qLFj0GDw7hjwtjSQd4U2-14" value="Stepper driver" style="rounded=0;whiteSpace=wrap;html=1;fillColor=#60a917;fontColor=#ffffff;strokeColor=#2D7600;" vertex="1" parent="WIyWlLk6GJQsqaUBKTNV-1">
          <mxGeometry x="590" y="720" width="110" height="160" as="geometry" />
        </mxCell>
        <mxCell id="qLFj0GDw7hjwtjSQd4U2-18" style="edgeStyle=orthogonalEdgeStyle;rounded=0;orthogonalLoop=1;jettySize=auto;html=1;fillColor=#60a917;strokeColor=#2D7600;" edge="1" parent="WIyWlLk6GJQsqaUBKTNV-1" source="qLFj0GDw7hjwtjSQd4U2-15">
          <mxGeometry relative="1" as="geometry">
            <mxPoint x="800" y="970.0000000000002" as="targetPoint" />
          </mxGeometry>
        </mxCell>
        <mxCell id="qLFj0GDw7hjwtjSQd4U2-15" value="Stepper driver" style="rounded=0;whiteSpace=wrap;html=1;fillColor=#60a917;fontColor=#ffffff;strokeColor=#2D7600;" vertex="1" parent="WIyWlLk6GJQsqaUBKTNV-1">
          <mxGeometry x="590" y="890" width="110" height="160" as="geometry" />
        </mxCell>
        <mxCell id="qLFj0GDw7hjwtjSQd4U2-25" value="Stepper motor" style="text;html=1;align=center;verticalAlign=middle;resizable=0;points=[];autosize=1;strokeColor=none;fillColor=none;" vertex="1" parent="WIyWlLk6GJQsqaUBKTNV-1">
          <mxGeometry x="700" y="430" width="100" height="30" as="geometry" />
        </mxCell>
        <mxCell id="qLFj0GDw7hjwtjSQd4U2-26" value="Stepper motor" style="text;html=1;align=center;verticalAlign=middle;resizable=0;points=[];autosize=1;strokeColor=none;fillColor=none;" vertex="1" parent="WIyWlLk6GJQsqaUBKTNV-1">
          <mxGeometry x="700" y="600" width="100" height="30" as="geometry" />
        </mxCell>
        <mxCell id="qLFj0GDw7hjwtjSQd4U2-27" value="Stepper motor" style="text;html=1;align=center;verticalAlign=middle;resizable=0;points=[];autosize=1;strokeColor=none;fillColor=none;" vertex="1" parent="WIyWlLk6GJQsqaUBKTNV-1">
          <mxGeometry x="700" y="770" width="100" height="30" as="geometry" />
        </mxCell>
        <mxCell id="qLFj0GDw7hjwtjSQd4U2-28" value="Stepper motor" style="text;html=1;align=center;verticalAlign=middle;resizable=0;points=[];autosize=1;strokeColor=none;fillColor=none;" vertex="1" parent="WIyWlLk6GJQsqaUBKTNV-1">
          <mxGeometry x="700" y="940" width="100" height="30" as="geometry" />
        </mxCell>
        <mxCell id="qLFj0GDw7hjwtjSQd4U2-30" value="" style="endArrow=none;html=1;rounded=0;fillColor=#f0a30a;strokeColor=#BD7000;" edge="1" parent="WIyWlLk6GJQsqaUBKTNV-1">
          <mxGeometry width="50" height="50" relative="1" as="geometry">
            <mxPoint x="459" y="230" as="sourcePoint" />
            <mxPoint x="520" y="230" as="targetPoint" />
          </mxGeometry>
        </mxCell>
        <mxCell id="qLFj0GDw7hjwtjSQd4U2-31" value="" style="endArrow=none;html=1;rounded=0;fillColor=#f0a30a;strokeColor=#BD7000;" edge="1" parent="WIyWlLk6GJQsqaUBKTNV-1">
          <mxGeometry width="50" height="50" relative="1" as="geometry">
            <mxPoint x="520" y="970" as="sourcePoint" />
            <mxPoint x="520" y="230" as="targetPoint" />
          </mxGeometry>
        </mxCell>
        <mxCell id="qLFj0GDw7hjwtjSQd4U2-32" value="" style="endArrow=classic;html=1;rounded=0;entryX=0;entryY=0.5;entryDx=0;entryDy=0;fillColor=#f0a30a;strokeColor=#BD7000;" edge="1" parent="WIyWlLk6GJQsqaUBKTNV-1" target="qLFj0GDw7hjwtjSQd4U2-12">
          <mxGeometry width="50" height="50" relative="1" as="geometry">
            <mxPoint x="520" y="460" as="sourcePoint" />
            <mxPoint x="570" y="420" as="targetPoint" />
          </mxGeometry>
        </mxCell>
        <mxCell id="qLFj0GDw7hjwtjSQd4U2-34" value="" style="endArrow=classic;html=1;rounded=0;entryX=0;entryY=0.5;entryDx=0;entryDy=0;fillColor=#f0a30a;strokeColor=#BD7000;" edge="1" parent="WIyWlLk6GJQsqaUBKTNV-1">
          <mxGeometry width="50" height="50" relative="1" as="geometry">
            <mxPoint x="520" y="640" as="sourcePoint" />
            <mxPoint x="590" y="640" as="targetPoint" />
          </mxGeometry>
        </mxCell>
        <mxCell id="qLFj0GDw7hjwtjSQd4U2-35" value="" style="endArrow=classic;html=1;rounded=0;entryX=0;entryY=0.5;entryDx=0;entryDy=0;fillColor=#f0a30a;strokeColor=#BD7000;" edge="1" parent="WIyWlLk6GJQsqaUBKTNV-1">
          <mxGeometry width="50" height="50" relative="1" as="geometry">
            <mxPoint x="520" y="799.5799999999999" as="sourcePoint" />
            <mxPoint x="590" y="799.5799999999999" as="targetPoint" />
          </mxGeometry>
        </mxCell>
        <mxCell id="qLFj0GDw7hjwtjSQd4U2-36" value="" style="endArrow=classic;html=1;rounded=0;entryX=0;entryY=0.5;entryDx=0;entryDy=0;fillColor=#f0a30a;strokeColor=#BD7000;" edge="1" parent="WIyWlLk6GJQsqaUBKTNV-1">
          <mxGeometry width="50" height="50" relative="1" as="geometry">
            <mxPoint x="520" y="969.1700000000001" as="sourcePoint" />
            <mxPoint x="590" y="969.1700000000001" as="targetPoint" />
          </mxGeometry>
        </mxCell>
        <mxCell id="qLFj0GDw7hjwtjSQd4U2-37" value="24v" style="text;html=1;align=center;verticalAlign=middle;resizable=0;points=[];autosize=1;strokeColor=none;fillColor=none;" vertex="1" parent="WIyWlLk6GJQsqaUBKTNV-1">
          <mxGeometry x="290" y="210" width="40" height="30" as="geometry" />
        </mxCell>
        <mxCell id="qLFj0GDw7hjwtjSQd4U2-54" style="edgeStyle=orthogonalEdgeStyle;rounded=0;orthogonalLoop=1;jettySize=auto;html=1;exitX=0.5;exitY=0;exitDx=0;exitDy=0;entryX=0.5;entryY=1;entryDx=0;entryDy=0;fillColor=#f0a30a;strokeColor=#BD7000;" edge="1" parent="WIyWlLk6GJQsqaUBKTNV-1" source="qLFj0GDw7hjwtjSQd4U2-39" target="qLFj0GDw7hjwtjSQd4U2-8">
          <mxGeometry relative="1" as="geometry" />
        </mxCell>
        <mxCell id="qLFj0GDw7hjwtjSQd4U2-39" value="Wemos D1&lt;div&gt;mini&lt;/div&gt;" style="rounded=0;whiteSpace=wrap;html=1;fillColor=#0050ef;fontColor=#ffffff;strokeColor=#001DBC;" vertex="1" parent="WIyWlLk6GJQsqaUBKTNV-1">
          <mxGeometry x="150" y="630" width="80" height="120" as="geometry" />
        </mxCell>
        <mxCell id="qLFj0GDw7hjwtjSQd4U2-40" value="" style="endArrow=classic;startArrow=classic;html=1;rounded=0;entryX=0.75;entryY=1;entryDx=0;entryDy=0;exitX=0.75;exitY=0;exitDx=0;exitDy=0;fillColor=#76608a;strokeColor=#432D57;" edge="1" parent="WIyWlLk6GJQsqaUBKTNV-1" source="qLFj0GDw7hjwtjSQd4U2-39" target="qLFj0GDw7hjwtjSQd4U2-8">
          <mxGeometry width="50" height="50" relative="1" as="geometry">
            <mxPoint x="360" y="590" as="sourcePoint" />
            <mxPoint x="410" y="540" as="targetPoint" />
            <Array as="points">
              <mxPoint x="210" y="570" />
            </Array>
          </mxGeometry>
        </mxCell>
        <mxCell id="qLFj0GDw7hjwtjSQd4U2-41" value="" style="endArrow=classic;startArrow=classic;html=1;rounded=0;entryX=0.75;entryY=1;entryDx=0;entryDy=0;exitX=0.75;exitY=0;exitDx=0;exitDy=0;fillColor=#76608a;strokeColor=#432D57;" edge="1" parent="WIyWlLk6GJQsqaUBKTNV-1">
          <mxGeometry width="50" height="50" relative="1" as="geometry">
            <mxPoint x="170" y="630" as="sourcePoint" />
            <mxPoint x="170" y="510" as="targetPoint" />
          </mxGeometry>
        </mxCell>
        <mxCell id="qLFj0GDw7hjwtjSQd4U2-42" value="Serial 1" style="text;html=1;align=center;verticalAlign=middle;resizable=0;points=[];autosize=1;strokeColor=none;fillColor=none;rotation=-90;" vertex="1" parent="WIyWlLk6GJQsqaUBKTNV-1">
          <mxGeometry x="130" y="554" width="60" height="30" as="geometry" />
        </mxCell>
        <mxCell id="qLFj0GDw7hjwtjSQd4U2-43" value="Serial 2" style="text;html=1;align=center;verticalAlign=middle;resizable=0;points=[];autosize=1;strokeColor=none;fillColor=none;rotation=90;" vertex="1" parent="WIyWlLk6GJQsqaUBKTNV-1">
          <mxGeometry x="200" y="554.5" width="60" height="30" as="geometry" />
        </mxCell>
        <mxCell id="qLFj0GDw7hjwtjSQd4U2-50" value="5v regulator" style="whiteSpace=wrap;html=1;fillColor=#f0a30a;fontColor=#000000;strokeColor=#BD7000;" vertex="1" parent="WIyWlLk6GJQsqaUBKTNV-1">
          <mxGeometry x="27.5" y="660" width="70" height="40" as="geometry" />
        </mxCell>
        <mxCell id="qLFj0GDw7hjwtjSQd4U2-53" style="edgeStyle=orthogonalEdgeStyle;rounded=0;orthogonalLoop=1;jettySize=auto;html=1;exitX=1;exitY=0.5;exitDx=0;exitDy=0;entryX=0.015;entryY=0.414;entryDx=0;entryDy=0;entryPerimeter=0;fillColor=#f0a30a;strokeColor=#BD7000;" edge="1" parent="WIyWlLk6GJQsqaUBKTNV-1" source="qLFj0GDw7hjwtjSQd4U2-50" target="qLFj0GDw7hjwtjSQd4U2-39">
          <mxGeometry relative="1" as="geometry" />
        </mxCell>
        <mxCell id="qLFj0GDw7hjwtjSQd4U2-56" value="5v" style="text;html=1;align=center;verticalAlign=middle;resizable=0;points=[];autosize=1;strokeColor=none;fillColor=none;" vertex="1" parent="WIyWlLk6GJQsqaUBKTNV-1">
          <mxGeometry x="100" y="660" width="40" height="30" as="geometry" />
        </mxCell>
        <mxCell id="qLFj0GDw7hjwtjSQd4U2-60" style="edgeStyle=orthogonalEdgeStyle;rounded=0;orthogonalLoop=1;jettySize=auto;html=1;entryX=0.5;entryY=0;entryDx=0;entryDy=0;fillColor=#f0a30a;strokeColor=#BD7000;" edge="1" parent="WIyWlLk6GJQsqaUBKTNV-1" source="qLFj0GDw7hjwtjSQd4U2-57" target="qLFj0GDw7hjwtjSQd4U2-50">
          <mxGeometry relative="1" as="geometry" />
        </mxCell>
        <mxCell id="qLFj0GDw7hjwtjSQd4U2-57" value="&lt;div&gt;DC&lt;/div&gt;Step down" style="rounded=0;whiteSpace=wrap;html=1;fillColor=#f0a30a;fontColor=#000000;strokeColor=#BD7000;rotation=-90;" vertex="1" parent="WIyWlLk6GJQsqaUBKTNV-1">
          <mxGeometry x="20" y="514" width="85" height="46" as="geometry" />
        </mxCell>
        <mxCell id="qLFj0GDw7hjwtjSQd4U2-59" value="24v" style="text;html=1;align=center;verticalAlign=middle;resizable=0;points=[];autosize=1;strokeColor=none;fillColor=none;rotation=-90;" vertex="1" parent="WIyWlLk6GJQsqaUBKTNV-1">
          <mxGeometry x="30" y="430" width="40" height="30" as="geometry" />
        </mxCell>
        <mxCell id="qLFj0GDw7hjwtjSQd4U2-61" value="+- 7v" style="text;html=1;align=center;verticalAlign=middle;resizable=0;points=[];autosize=1;strokeColor=none;fillColor=none;rotation=-90;" vertex="1" parent="WIyWlLk6GJQsqaUBKTNV-1">
          <mxGeometry x="30" y="608" width="50" height="30" as="geometry" />
        </mxCell>
        <mxCell id="qLFj0GDw7hjwtjSQd4U2-81" style="edgeStyle=orthogonalEdgeStyle;rounded=0;orthogonalLoop=1;jettySize=auto;html=1;entryX=1;entryY=0.75;entryDx=0;entryDy=0;fillColor=#e51400;strokeColor=#B20000;" edge="1" parent="WIyWlLk6GJQsqaUBKTNV-1" source="qLFj0GDw7hjwtjSQd4U2-75" target="qLFj0GDw7hjwtjSQd4U2-8">
          <mxGeometry relative="1" as="geometry" />
        </mxCell>
        <mxCell id="qLFj0GDw7hjwtjSQd4U2-75" value="limit switch" style="rounded=0;whiteSpace=wrap;html=1;fillColor=#e51400;fontColor=#ffffff;strokeColor=#B20000;" vertex="1" parent="WIyWlLk6GJQsqaUBKTNV-1">
          <mxGeometry x="27.5" y="850" width="80" height="30" as="geometry" />
        </mxCell>
        <mxCell id="qLFj0GDw7hjwtjSQd4U2-83" style="edgeStyle=orthogonalEdgeStyle;rounded=0;orthogonalLoop=1;jettySize=auto;html=1;entryX=1;entryY=0.75;entryDx=0;entryDy=0;fillColor=#e51400;strokeColor=#B20000;" edge="1" parent="WIyWlLk6GJQsqaUBKTNV-1" source="qLFj0GDw7hjwtjSQd4U2-78" target="qLFj0GDw7hjwtjSQd4U2-8">
          <mxGeometry relative="1" as="geometry">
            <Array as="points">
              <mxPoint x="260" y="905" />
              <mxPoint x="260" y="480" />
            </Array>
          </mxGeometry>
        </mxCell>
        <mxCell id="qLFj0GDw7hjwtjSQd4U2-78" value="limit switch" style="rounded=0;whiteSpace=wrap;html=1;fillColor=#e51400;fontColor=#ffffff;strokeColor=#B20000;" vertex="1" parent="WIyWlLk6GJQsqaUBKTNV-1">
          <mxGeometry x="27.5" y="890" width="80" height="30" as="geometry" />
        </mxCell>
        <mxCell id="qLFj0GDw7hjwtjSQd4U2-84" style="edgeStyle=orthogonalEdgeStyle;rounded=0;orthogonalLoop=1;jettySize=auto;html=1;entryX=1;entryY=0.75;entryDx=0;entryDy=0;fillColor=#e51400;strokeColor=#B20000;" edge="1" parent="WIyWlLk6GJQsqaUBKTNV-1" source="qLFj0GDw7hjwtjSQd4U2-79" target="qLFj0GDw7hjwtjSQd4U2-8">
          <mxGeometry relative="1" as="geometry">
            <Array as="points">
              <mxPoint x="270" y="945" />
              <mxPoint x="270" y="480" />
            </Array>
          </mxGeometry>
        </mxCell>
        <mxCell id="qLFj0GDw7hjwtjSQd4U2-79" value="limit switch" style="rounded=0;whiteSpace=wrap;html=1;fillColor=#e51400;fontColor=#ffffff;strokeColor=#B20000;" vertex="1" parent="WIyWlLk6GJQsqaUBKTNV-1">
          <mxGeometry x="27.5" y="930" width="80" height="30" as="geometry" />
        </mxCell>
      </root>
    </mxGraphModel>
  </diagram>
</mxfile>
